<svg xmlns="http://www.w3.org/2000/svg" version="1.1" xmlns:xlink="http://www.w3.org/1999/xlink" width="1500" height="1500" viewBox="0 0 1500 1500"><rect width="1500" height="1500" fill="#ffffff"></rect><g transform="matrix(0.6666666666666666,0,0,0.6666666666666666,249.39393939393938,593.8525101358033)"><svg viewBox="0 0 396 123" data-background-color="#ede1d1" preserveAspectRatio="xMidYMid meet" height="465" width="1500" xmlns="http://www.w3.org/2000/svg" xmlns:xlink="http://www.w3.org/1999/xlink"><g id="tight-bounds" transform="matrix(1,0,0,1,0.2400000000000091,0.4552943654715875)"><svg viewBox="0 0 395.52 122.08941126905681" height="122.08941126905681" width="395.52"><g><svg viewBox="0 0 395.52 122.08941126905681" height="122.08941126905681" width="395.52"><g><svg viewBox="0 0 395.52 122.08941126905681" height="122.08941126905681" width="395.52"><g id="textblocktransform"><svg viewBox="0 0 395.52 122.08941126905681" height="122.08941126905681" width="395.52" id="textblock"><g><svg viewBox="0 0 395.52 85.79741538461538" height="85.79741538461538" width="395.52"><g transform="matrix(1,0,0,1,0,0)"><svg width="395.52" viewBox="2.5 -34.35 162.49 35.25" height="85.79741538461538" data-palette-color="#6a704c"><path d="M10.9 0L2.5 0 2.5-0.85 4.9-0.85Q5.7-0.85 6-1.2 6.3-1.55 6.3-2.3L6.3-2.3 6.3-33.5 2.6-33.5 2.6-34.35 10.9-34.35 10.9-33.5 8.6-33.5Q7.8-33.5 7.5-33.15 7.2-32.8 7.2-32.05L7.2-32.05 7.2-19.15 30.3-19.1 30.3-33.5 26.5-33.5 26.5-34.35 34.9-34.35 34.9-33.5 32.6-33.5Q31.8-33.5 31.5-33.15 31.2-32.8 31.2-32.05L31.2-32.05 31.2-0.85 34.9-0.85 34.9 0 26.5 0 26.5-0.85 28.9-0.85Q29.7-0.85 30-1.2 30.3-1.55 30.3-2.3L30.3-2.3 30.3-18.25 7.2-18.3 7.2-0.85 10.9-0.85 10.9 0ZM49.4 0.9L49.4 0.9Q46.35 0.9 44-0.5 41.65-1.9 40.3-4.4 38.95-6.9 38.9-10.15L38.9-10.15Q38.9-13.4 40.22-15.9 41.55-18.4 43.92-19.8 46.3-21.2 49.4-21.2L49.4-21.2Q52.5-21.2 54.85-19.8 57.2-18.4 58.52-15.9 59.85-13.4 59.85-10.15L59.85-10.15Q59.85-6.9 58.52-4.4 57.2-1.9 54.85-0.5 52.5 0.9 49.4 0.9ZM49.4 0L49.4 0Q52.2 0 54.35-1.28 56.5-2.55 57.72-4.85 58.95-7.15 58.95-10.15L58.95-10.15Q58.95-13.15 57.72-15.45 56.5-17.75 54.35-19.05 52.2-20.35 49.4-20.3L49.4-20.3Q46.6-20.3 44.42-18.98 42.25-17.65 41.02-15.38 39.8-13.1 39.8-10.15L39.8-10.15Q39.8-7.2 41.02-4.93 42.25-2.65 44.42-1.35 46.6-0.05 49.4 0ZM73.59 0.9L73.59 0.9Q70.3 0.9 67.9-0.5 65.5-1.9 64.2-4.4 62.9-6.9 62.85-10.15L62.85-10.15Q62.85-13.35 64.17-15.85 65.5-18.35 67.87-19.8 70.25-21.25 73.34-21.25L73.34-21.25Q76-21.25 78.2-20.1 80.4-18.95 81.5-16.85L81.5-16.85Q82.09-15.75 82.15-15.08 82.2-14.4 81.84-14.1L81.84-14.1Q81.4-13.75 80.9-13.95 80.4-14.15 80.3-14.55L80.3-14.55Q80.2-15 80.4-15.23 80.59-15.45 80.75-15.73 80.9-16 80.59-16.6L80.59-16.6Q79.8-18.15 77.82-19.25 75.84-20.35 73.34-20.35L73.34-20.35Q70.55-20.35 68.37-19.05 66.2-17.75 64.97-15.45 63.75-13.15 63.75-10.15L63.75-10.15Q63.75-7.2 64.95-4.9 66.15-2.6 68.34-1.3 70.55 0 73.59 0L73.59 0Q76.4-0.05 78.52-1.18 80.65-2.3 81.75-4.4L81.75-4.4 82.45-3.95Q81.2-1.65 78.87-0.38 76.55 0.9 73.59 0.9ZM91.09 0L84.24 0 84.24-0.85 86.09-0.85Q87.24-0.85 87.44-1.7L87.44-1.7 87.44-32.1Q87.44-32.85 87.14-33.18 86.84-33.5 86.04-33.5L86.04-33.5 84.19-33.5 84.19-34.35 88.34-34.35 88.34-8.2 101.24-19.5 96.19-19.5 96.19-20.35 106.14-20.35 106.14-19.5 102.49-19.5 95.44-13.3 103.14-0.85 106.19-0.85 106.19 0 99.34 0 99.34-0.85 102.09-0.85 94.79-12.75 88.34-7.05 88.34-0.85 91.09-0.85 91.09 0ZM118.04 0.85L118.04 0.85Q115.24 0.85 113.07-0.58 110.89-2 110.59-4.4L110.59-4.4Q110.49-5.4 110.64-5.93 110.79-6.45 111.04-6.65L111.04-6.65Q111.54-7.1 112.22-6.78 112.89-6.45 112.64-5.6L112.64-5.6Q112.49-5.1 112.17-5 111.84-4.9 111.64-4.7 111.44-4.5 111.59-3.75L111.59-3.75Q111.99-2.1 113.89-1.05 115.79 0 118.04 0L118.04 0Q120.84 0 122.74-1.5 124.64-3 124.59-5.15L124.59-5.15Q124.54-6.9 123.29-7.83 122.04-8.75 120.24-9.5L120.24-9.5Q119.44-9.85 118.44-10.2 117.44-10.55 116.64-10.85L116.64-10.85Q115.34-11.35 114.14-11.95 112.94-12.55 112.19-13.45 111.44-14.35 111.44-15.75L111.44-15.75Q111.44-18.25 113.29-19.75 115.14-21.25 117.89-21.25L117.89-21.25Q119.49-21.25 121.24-20.6 122.99-19.95 124.04-18.4L124.04-18.4Q124.74-17.4 124.82-16.65 124.89-15.9 124.64-15.55L124.64-15.55Q124.24-15 123.52-15.18 122.79-15.35 122.89-16.15L122.89-16.15Q122.94-16.55 123.17-16.73 123.39-16.9 123.52-17.15 123.64-17.4 123.34-17.9L123.34-17.9Q122.34-19.35 120.82-19.88 119.29-20.4 117.89-20.4L117.89-20.4Q115.44-20.4 113.87-19.1 112.29-17.8 112.29-15.75L112.29-15.75Q112.29-14.1 113.64-13.25 114.99-12.4 116.69-11.7L116.69-11.7Q117.49-11.4 118.47-11.08 119.44-10.75 120.29-10.4L120.29-10.4Q122.49-9.55 123.99-8.35 125.49-7.15 125.44-5.15L125.44-5.15Q125.39-2.55 123.29-0.85 121.19 0.85 118.04 0.85ZM136.64 0L129.79 0 129.79-0.85 131.64-0.85Q132.44-0.85 132.74-1.18 133.04-1.5 133.04-2.25L133.04-2.25 133.04-32.1Q133.04-32.85 132.74-33.18 132.44-33.5 131.64-33.5L131.64-33.5 129.79-33.5 129.79-34.35 133.94-34.35 133.94-16.8Q134.89-18.75 137.11-19.98 139.34-21.2 141.89-21.2L141.89-21.2Q145.74-21.2 148.14-18.98 150.54-16.75 150.54-12.55L150.54-12.55 150.54-0.85 153.24-0.85 153.24 0 146.39 0 146.39-0.85 148.24-0.85Q149.04-0.85 149.34-1.18 149.64-1.5 149.64-2.25L149.64-2.25 149.64-12.55Q149.64-16.35 147.46-18.32 145.29-20.3 141.89-20.3L141.89-20.3Q139.64-20.3 137.84-19.38 136.04-18.45 134.99-16.78 133.94-15.1 133.94-12.8L133.94-12.8 133.94-0.85 136.64-0.85 136.64 0ZM160.64-27.65L160.64-27.65Q159.84-27.65 159.31-28.18 158.79-28.7 158.79-29.5L158.79-29.5Q158.79-30.25 159.31-30.73 159.84-31.2 160.64-31.2L160.64-31.2Q161.39-31.2 161.86-30.73 162.34-30.25 162.34-29.5L162.34-29.5Q162.34-28.7 161.86-28.18 161.39-27.65 160.64-27.65ZM164.99 0L155.99 0 155.99-0.85 158.94-0.85Q159.74-0.85 160.04-1.18 160.34-1.5 160.34-2.25L160.34-2.25 160.34-18.1Q160.34-18.85 160.04-19.18 159.74-19.5 158.94-19.5L158.94-19.5 157.09-19.5 157.09-20.35 161.24-20.35 161.24-0.85 164.99-0.85 164.99 0Z" opacity="1" transform="matrix(1,0,0,1,0,0)" fill="#000000" class="wordmark-text-0" data-fill-palette-color="primary" id="text-0"></path></svg></g></svg></g><g transform="matrix(1,0,0,1,0,106.05212601895384)"><svg viewBox="0 0 395.52 16.03728525010297" height="16.03728525010297" width="395.52"><g transform="matrix(1,0,0,1,0,0)"><svg width="395.52" viewBox="2.55 -37.9 1092.43 44.3" height="16.03728525010297" data-palette-color="#6a704c"><path d="M28.5-33L27.6-29.3Q26.35-29.7 24.95-30.03 23.55-30.35 21.88-30.58 20.2-30.8 18.35-30.8L18.35-30.8Q15.35-30.8 13.25-29.5 11.15-28.2 9.83-26.18 8.5-24.15 7.9-21.65 7.3-19.15 7.3-16.7L7.3-16.7Q7.3-13.6 8.18-11.08 9.05-8.55 10.58-6.78 12.1-5 14.13-4.05 16.15-3.1 18.4-3.1L18.4-3.1Q20.5-3.1 22.25-3.33 24-3.55 25.25-3.8L25.25-3.8Q26.7-4.1 27.85-4.5L27.85-4.5 28.7-0.95Q27.35-0.5 25.7-0.15L25.7-0.15Q24.3 0.15 22.45 0.4 20.6 0.65 18.4 0.65L18.4 0.65Q14.45 0.65 11.48-0.65 8.5-1.95 6.53-4.28 4.55-6.6 3.55-9.78 2.55-12.95 2.55-16.75L2.55-16.75Q2.55-21.1 3.75-24.43 4.95-27.75 7.05-30 9.15-32.25 12.05-33.4 14.95-34.55 18.4-34.55L18.4-34.55Q20.5-34.55 22.33-34.33 24.15-34.1 25.68-33.75 27.2-33.4 28.5-33L28.5-33ZM48.65 0.4L48.35-2.75 48.25-2.75Q47.8-2.4 46.95-1.83 46.1-1.25 45-0.7 43.9-0.15 42.57 0.25 41.25 0.65 39.9 0.65L39.9 0.65Q38.05 0.65 36.75 0.18 35.45-0.3 34.65-1.4 33.85-2.5 33.5-4.3 33.15-6.1 33.15-8.8L33.15-8.8 33.15-25.15 37.15-25.15 37.15-9.4Q37.15-7.9 37.2-6.7 37.25-5.5 37.55-4.65 37.85-3.8 38.52-3.33 39.2-2.85 40.45-2.85L40.45-2.85Q41.75-2.85 43.15-3.4 44.55-3.95 45.7-4.65L45.7-4.65Q47.05-5.45 48.35-6.45L48.35-6.45 48.35-25.15 52.35-25.15 52.35-3.25Q52.4-1.45 52.6 0L52.6 0 48.65 0.4ZM59.65 0L59.65-21.1Q59.65-22.25 59.4-24.7L59.4-24.7 63.1-25.2 63.5-21.55 63.55-21.55Q64.45-22.7 65.3-23.55 66.15-24.4 67.07-25.03 68-25.65 68.84-25.65L68.84-25.65Q70-25.7 72.05-25.4L72.05-25.4 71.15-21.55Q69.5-21.85 68.84-21.8L68.84-21.8Q68-21.8 67.05-21 66.09-20.2 65.4-19.3L65.4-19.3Q64.5-18.2 63.65-16.8L63.65-16.8 63.65 0 59.65 0ZM90.09-5.85L90.09-11.55Q89.09-11.5 88.19-11.45 87.29-11.4 86.42-11.33 85.54-11.25 84.84-11.15L84.84-11.15Q81.24-10.7 79.74-9.58 78.24-8.45 78.24-6.35L78.24-6.35Q78.24-4.6 79.32-3.73 80.39-2.85 82.14-2.85L82.14-2.85Q84.54-2.85 86.42-3.68 88.29-4.5 90.09-5.85L90.09-5.85ZM90.54 0.4L90.04-2.35Q87.69-1 85.67-0.18 83.64 0.65 81.29 0.65L81.29 0.65Q77.94 0.65 75.97-0.98 73.99-2.6 73.99-6.35L73.99-6.35Q73.99-8.3 74.99-9.75 75.99-11.2 77.62-12.18 79.24-13.15 81.29-13.7 83.34-14.25 85.49-14.4L85.49-14.4Q86.39-14.5 87.84-14.58 89.29-14.65 90.09-14.7L90.09-14.7Q90.09-16.45 89.99-17.82 89.89-19.2 89.39-20.18 88.89-21.15 87.92-21.65 86.94-22.15 85.14-22.15L85.14-22.15Q83.69-22.15 82.34-21.98 80.99-21.8 79.94-21.6L79.94-21.6Q78.69-21.35 77.64-21.05L77.64-21.05 76.84-24.5Q78.09-24.8 79.54-25.05L79.54-25.05Q80.79-25.3 82.44-25.48 84.09-25.65 85.99-25.65L85.99-25.65Q88.54-25.65 90.12-24.9 91.69-24.15 92.57-22.88 93.44-21.6 93.77-19.98 94.09-18.35 94.09-16.55L94.09-16.55 94.09-4.55Q94.09-3.85 94.12-3.08 94.14-2.3 94.22-1.55 94.29-0.8 94.39 0L94.39 0 90.54 0.4ZM102.99-32.15L106.99-32.65 106.99-25.15 114.24-25.15 114.24-21.9 106.99-21.9 106.99-8.55Q106.99-6.9 107.07-5.8 107.14-4.7 107.39-4.05 107.64-3.4 108.09-3.13 108.54-2.85 109.24-2.85L109.24-2.85Q111.14-2.9 113.64-4.25L113.64-4.25 114.84-1.2Q113.19-0.1 111.77 0.28 110.34 0.65 108.94 0.65L108.94 0.65Q105.64 0.65 104.32-1.23 102.99-3.1 102.99-7.45L102.99-7.45 102.99-21.9 98.39-21.9 98.39-25.15 102.99-25.15 102.99-32.15ZM136.99-3.95L137.74-0.6Q136.59-0.25 135.36 0 134.14 0.25 132.66 0.45 131.19 0.65 129.59 0.65L129.59 0.65Q127.09 0.65 124.94-0.05 122.79-0.75 121.19-2.3 119.59-3.85 118.66-6.33 117.74-8.8 117.74-12.4L117.74-12.4Q117.74-15.65 118.64-18.13 119.54-20.6 121.11-22.28 122.69-23.95 124.81-24.8 126.94-25.65 129.44-25.65L129.44-25.65Q131.89-25.65 133.69-24.7 135.49-23.75 136.66-22.13 137.84-20.5 138.41-18.32 138.99-16.15 138.99-13.75L138.99-13.75 138.24-11.55 122.09-11.55Q122.09-10 122.49-8.45 122.89-6.9 123.86-5.65 124.84-4.4 126.41-3.63 127.99-2.85 130.34-2.85L130.34-2.85Q131.84-2.85 133.09-3.03 134.34-3.2 135.26-3.43 136.19-3.65 136.99-3.95L136.99-3.95ZM122.24-14.75L134.84-14.75Q134.84-15.1 134.69-16.3 134.54-17.5 133.99-18.8 133.44-20.1 132.29-21.13 131.14-22.15 129.24-22.15L129.24-22.15Q127.14-22.15 125.79-21.28 124.44-20.4 123.64-19.2 122.84-18 122.54-16.75 122.24-15.5 122.24-14.75L122.24-14.75ZM160.14-5.5L160.14-21.4Q158.34-21.9 157.34-22.03 156.34-22.15 155.28-22.15L155.28-22.15Q153.19-22.15 151.69-21.4 150.19-20.65 149.21-19.33 148.24-18 147.78-16.28 147.34-14.55 147.34-12.6L147.34-12.6Q147.34-10.85 147.71-9.1 148.09-7.35 148.89-5.95 149.69-4.55 150.84-3.7 151.99-2.85 153.59-2.85L153.59-2.85Q154.69-2.85 155.86-3.25 157.03-3.65 158.03-4.17 159.03-4.7 160.14-5.5L160.14-5.5ZM160.59 0.4L160.19-2Q159.03-1.2 157.96-0.68 156.89-0.15 155.61 0.25 154.34 0.65 153.14 0.65L153.14 0.65Q148.44 0.65 145.76-2.68 143.09-6 143.09-12.4L143.09-12.4Q143.09-16.2 144.31-18.75 145.53-21.3 147.39-22.83 149.24-24.35 151.36-25 153.49-25.65 155.28-25.65L155.28-25.65Q156.19-25.65 157.19-25.53 158.19-25.4 160.14-24.9L160.14-24.9 160.14-37.45 164.14-37.9 164.14-4.55Q164.14-3.85 164.16-3.08 164.19-2.3 164.26-1.55 164.34-0.8 164.44 0L164.44 0 160.59 0.4ZM198.18 0.4L197.88-2.75 197.78-2.75Q197.33-2.4 196.48-1.83 195.63-1.25 194.53-0.7 193.43-0.15 192.11 0.25 190.78 0.65 189.43 0.65L189.43 0.65Q187.58 0.65 186.28 0.18 184.98-0.3 184.18-1.4 183.38-2.5 183.03-4.3 182.68-6.1 182.68-8.8L182.68-8.8 182.68-25.15 186.68-25.15 186.68-9.4Q186.68-7.9 186.73-6.7 186.78-5.5 187.08-4.65 187.38-3.8 188.06-3.33 188.73-2.85 189.98-2.85L189.98-2.85Q191.28-2.85 192.68-3.4 194.08-3.95 195.23-4.65L195.23-4.65Q196.58-5.45 197.88-6.45L197.88-6.45 197.88-25.15 201.88-25.15 201.88-3.25Q201.93-1.45 202.13 0L202.13 0 198.18 0.4ZM223.43-24.6L222.73-21.05Q220.63-21.7 219-21.93 217.38-22.15 216.03-22.15L216.03-22.15Q214.28-22.15 213.1-21.3 211.93-20.45 211.93-19.1L211.93-19.1Q211.98-17.9 212.98-17.05 213.98-16.2 215.3-15.53 216.63-14.85 218.25-14.05 219.88-13.25 221.3-12.25 222.73-11.25 223.63-9.85 224.53-8.45 224.58-6.5L224.58-6.5Q224.53-4.4 223.65-3.03 222.78-1.65 221.4-0.83 220.03 0 218.43 0.33 216.83 0.65 215.43 0.65L215.43 0.65Q213.63 0.65 211.7 0.45 209.78 0.25 207.58-0.4L207.58-0.4 208.33-4Q210.58-3.4 212.43-3.13 214.28-2.85 215.48-2.85L215.48-2.85Q216.38-2.85 217.25-3.05 218.13-3.25 218.83-3.63 219.53-4 219.95-4.6 220.38-5.2 220.38-5.95L220.38-5.95Q220.33-7.35 219.43-8.33 218.53-9.3 217.1-10.08 215.68-10.85 214.05-11.63 212.43-12.4 211-13.43 209.58-14.45 208.63-15.88 207.68-17.3 207.68-19.4L207.68-19.4Q207.68-20.9 208.45-22.08 209.23-23.25 210.45-24.03 211.68-24.8 213.15-25.23 214.63-25.65 216.03-25.65L216.03-25.65Q217.48-25.65 219.28-25.43 221.08-25.2 223.43-24.6L223.43-24.6ZM247.83-3.95L248.58-0.6Q247.43-0.25 246.2 0 244.98 0.25 243.5 0.45 242.03 0.65 240.43 0.65L240.43 0.65Q237.93 0.65 235.78-0.05 233.63-0.75 232.03-2.3 230.43-3.85 229.5-6.33 228.58-8.8 228.58-12.4L228.58-12.4Q228.58-15.65 229.48-18.13 230.38-20.6 231.95-22.28 233.53-23.95 235.65-24.8 237.78-25.65 240.28-25.65L240.28-25.65Q242.73-25.65 244.53-24.7 246.33-23.75 247.5-22.13 248.68-20.5 249.25-18.32 249.83-16.15 249.83-13.75L249.83-13.75 249.08-11.55 232.93-11.55Q232.93-10 233.33-8.45 233.73-6.9 234.7-5.65 235.68-4.4 237.25-3.63 238.83-2.85 241.18-2.85L241.18-2.85Q242.68-2.85 243.93-3.03 245.18-3.2 246.1-3.43 247.03-3.65 247.83-3.95L247.83-3.95ZM233.08-14.75L245.68-14.75Q245.68-15.1 245.53-16.3 245.38-17.5 244.83-18.8 244.28-20.1 243.13-21.13 241.98-22.15 240.08-22.15L240.08-22.15Q237.98-22.15 236.63-21.28 235.28-20.4 234.48-19.2 233.68-18 233.38-16.75 233.08-15.5 233.08-14.75L233.08-14.75ZM270.97-5.5L270.97-21.4Q269.17-21.9 268.17-22.03 267.17-22.15 266.12-22.15L266.12-22.15Q264.02-22.15 262.52-21.4 261.02-20.65 260.05-19.33 259.07-18 258.62-16.28 258.17-14.55 258.17-12.6L258.17-12.6Q258.17-10.85 258.55-9.1 258.92-7.35 259.72-5.95 260.52-4.55 261.67-3.7 262.82-2.85 264.42-2.85L264.42-2.85Q265.52-2.85 266.7-3.25 267.87-3.65 268.87-4.17 269.87-4.7 270.97-5.5L270.97-5.5ZM271.42 0.4L271.02-2Q269.87-1.2 268.8-0.68 267.72-0.15 266.45 0.25 265.17 0.65 263.97 0.65L263.97 0.65Q259.27 0.65 256.6-2.68 253.92-6 253.92-12.4L253.92-12.4Q253.92-16.2 255.15-18.75 256.37-21.3 258.22-22.83 260.07-24.35 262.2-25 264.32-25.65 266.12-25.65L266.12-25.65Q267.02-25.65 268.02-25.53 269.02-25.4 270.97-24.9L270.97-24.9 270.97-37.45 274.97-37.9 274.97-4.55Q274.97-3.85 275-3.08 275.02-2.3 275.1-1.55 275.17-0.8 275.27 0L275.27 0 271.42 0.4ZM293.62-1.5L293.62-37.45 297.62-37.9 297.62-23Q298.72-23.75 299.92-24.3L299.92-24.3Q300.92-24.8 302.17-25.23 303.42-25.65 304.67-25.65L304.67-25.65Q306.72-25.65 308.54-24.85 310.37-24.05 311.74-22.45 313.12-20.85 313.92-18.4 314.72-15.95 314.72-12.6L314.72-12.6Q314.72-8.9 313.69-6.38 312.67-3.85 310.94-2.3 309.22-0.75 307.02-0.05 304.82 0.65 302.52 0.65L302.52 0.65Q300.22 0.65 298.54 0.33 296.87 0 295.77-0.4L295.77-0.4Q294.47-0.9 293.62-1.5L293.62-1.5ZM297.62-19.4L297.62-3.7Q298.27-3.45 299.02-3.28 299.77-3.1 300.64-2.98 301.52-2.85 302.52-2.85L302.52-2.85Q304.82-2.85 306.37-3.5 307.92-4.15 308.82-5.4 309.72-6.65 310.09-8.43 310.47-10.2 310.47-12.4L310.47-12.4Q310.47-14.15 310.09-15.9 309.72-17.65 308.92-19.03 308.12-20.4 306.94-21.28 305.77-22.15 304.22-22.15L304.22-22.15Q303.17-22.15 302.02-21.73 300.87-21.3 299.87-20.75L299.87-20.75Q298.72-20.15 297.62-19.4L297.62-19.4ZM323.42-12.45L323.42-12.45Q323.42-7.6 325.59-5.23 327.77-2.85 331.47-2.85L331.47-2.85Q335.12-2.85 337.17-5.2 339.22-7.55 339.22-12.25L339.22-12.25Q339.22-17.25 337.04-19.7 334.87-22.15 331.12-22.15L331.12-22.15Q327.37-22.15 325.39-19.73 323.42-17.3 323.42-12.45ZM319.17-12.5L319.17-12.5Q319.17-16.3 320.37-18.82 321.57-21.35 323.42-22.88 325.27-24.4 327.39-25.03 329.52-25.65 331.42-25.65L331.42-25.65Q333.22-25.65 335.34-25.08 337.47-24.5 339.27-23.03 341.07-21.55 342.27-19.07 343.47-16.6 343.47-12.8L343.47-12.8Q343.47-8.85 342.24-6.25 341.02-3.65 339.17-2.13 337.32-0.6 335.17 0.03 333.02 0.65 331.17 0.65L331.17 0.65Q329.27 0.65 327.17 0.05 325.07-0.55 323.29-2.02 321.52-3.5 320.34-6.05 319.17-8.6 319.17-12.5ZM352.11-12.45L352.11-12.45Q352.11-7.6 354.29-5.23 356.46-2.85 360.16-2.85L360.16-2.85Q363.81-2.85 365.86-5.2 367.91-7.55 367.91-12.25L367.91-12.25Q367.91-17.25 365.74-19.7 363.56-22.15 359.81-22.15L359.81-22.15Q356.06-22.15 354.09-19.73 352.11-17.3 352.11-12.45ZM347.86-12.5L347.86-12.5Q347.86-16.3 349.06-18.82 350.26-21.35 352.11-22.88 353.96-24.4 356.09-25.03 358.21-25.65 360.11-25.65L360.11-25.65Q361.91-25.65 364.04-25.08 366.16-24.5 367.96-23.03 369.76-21.55 370.96-19.07 372.16-16.6 372.16-12.8L372.16-12.8Q372.16-8.85 370.94-6.25 369.71-3.65 367.86-2.13 366.01-0.6 363.86 0.03 361.71 0.65 359.86 0.65L359.86 0.65Q357.96 0.65 355.86 0.05 353.76-0.55 351.99-2.02 350.21-3.5 349.04-6.05 347.86-8.6 347.86-12.5ZM377.96 0L377.96-37.45 381.96-37.9 381.96-15.35 393.11-25.15 398.61-25.15 387.71-15.6 399.01 0 393.96 0 384.76-13.05 381.96-10.6 381.96 0 377.96 0ZM417.31-24.6L416.61-21.05Q414.51-21.7 412.88-21.93 411.26-22.15 409.91-22.15L409.91-22.15Q408.16-22.15 406.98-21.3 405.81-20.45 405.81-19.1L405.81-19.1Q405.86-17.9 406.86-17.05 407.86-16.2 409.18-15.53 410.51-14.85 412.13-14.05 413.76-13.25 415.18-12.25 416.61-11.25 417.51-9.85 418.41-8.45 418.46-6.5L418.46-6.5Q418.41-4.4 417.53-3.03 416.66-1.65 415.28-0.83 413.91 0 412.31 0.33 410.71 0.65 409.31 0.65L409.31 0.65Q407.51 0.65 405.58 0.45 403.66 0.25 401.46-0.4L401.46-0.4 402.21-4Q404.46-3.4 406.31-3.13 408.16-2.85 409.36-2.85L409.36-2.85Q410.26-2.85 411.13-3.05 412.01-3.25 412.71-3.63 413.41-4 413.83-4.6 414.26-5.2 414.26-5.95L414.26-5.95Q414.21-7.35 413.31-8.33 412.41-9.3 410.98-10.08 409.56-10.85 407.93-11.63 406.31-12.4 404.88-13.43 403.46-14.45 402.51-15.88 401.56-17.3 401.56-19.4L401.56-19.4Q401.56-20.9 402.33-22.08 403.11-23.25 404.33-24.03 405.56-24.8 407.03-25.23 408.51-25.65 409.91-25.65L409.91-25.65Q411.36-25.65 413.16-25.43 414.96-25.2 417.31-24.6L417.31-24.6ZM435.3 0L435.3-25.2 439.3-25.65 439.3 0 435.3 0ZM434.65-32.35L434.65-32.35Q434.65-33.5 435.43-34.27 436.2-35.05 437.35-35.05L437.35-35.05Q438.55-35.05 439.38-34.27 440.2-33.5 440.2-32.35L440.2-32.35Q440.2-31.2 439.38-30.43 438.55-29.65 437.35-29.65L437.35-29.65Q436.2-29.65 435.43-30.43 434.65-31.2 434.65-32.35ZM446.55 0L446.55-20.15Q446.6-21.2 446.3-24.7L446.3-24.7 450-25.2 450.55-22Q452.05-23 453.53-23.75 455-24.5 456.55-25.08 458.1-25.65 459.55-25.65L459.55-25.65Q461.6-25.65 462.98-25.18 464.35-24.7 465.2-23.6 466.05-22.5 466.43-20.7 466.8-18.9 466.8-16.2L466.8-16.2 466.8 0 462.8 0 462.8-15.75Q462.8-17.25 462.75-18.43 462.7-19.6 462.33-20.43 461.95-21.25 461.18-21.7 460.4-22.15 459-22.15L459-22.15Q457.7-22.15 456.25-21.58 454.8-21 453.4-20.25 452-19.5 450.55-18.5L450.55-18.5 450.55 0 446.55 0ZM486.1 0L486.1-34.1 495.2-34.1Q500.6-34.1 503.02-32.1 505.45-30.1 505.45-26L505.45-26Q505.45-24.1 504.92-22.7 504.4-21.3 503.75-20.35L503.75-20.35Q503-19.25 502.1-18.45L502.1-18.45Q503.3-18 504.35-17.3 505.4-16.6 506.2-15.6 507-14.6 507.47-13.23 507.95-11.85 507.95-10L507.95-10Q507.95-7.95 507.4-6.13 506.85-4.3 505.55-2.95 504.25-1.6 502.1-0.8 499.95 0 496.75 0L496.75 0 486.1 0ZM490.3-30.35L490.3-19.3 498.65-19.3Q499.35-19.85 499.9-20.75L499.9-20.75Q500.4-21.5 500.8-22.63 501.2-23.75 501.2-25.35L501.2-25.35Q501.2-28.3 499.67-29.33 498.15-30.35 495.4-30.35L495.4-30.35 490.3-30.35ZM490.3-15.8L490.3-3.75 497.1-3.75Q500.4-3.75 502.05-5.45 503.7-7.15 503.7-10L503.7-10Q503.7-11.25 503.37-12.3 503.05-13.35 502.25-14.13 501.45-14.9 500.1-15.35 498.75-15.8 496.75-15.8L496.75-15.8 490.3-15.8ZM529.39 0.4L529.09-2.75 528.99-2.75Q528.54-2.4 527.69-1.83 526.84-1.25 525.74-0.7 524.64-0.15 523.32 0.25 521.99 0.65 520.64 0.65L520.64 0.65Q518.79 0.65 517.49 0.18 516.19-0.3 515.39-1.4 514.59-2.5 514.24-4.3 513.89-6.1 513.89-8.8L513.89-8.8 513.89-25.15 517.89-25.15 517.89-9.4Q517.89-7.9 517.94-6.7 517.99-5.5 518.29-4.65 518.59-3.8 519.27-3.33 519.94-2.85 521.19-2.85L521.19-2.85Q522.49-2.85 523.89-3.4 525.29-3.95 526.44-4.65L526.44-4.65Q527.79-5.45 529.09-6.45L529.09-6.45 529.09-25.15 533.09-25.15 533.09-3.25Q533.14-1.45 533.34 0L533.34 0 529.39 0.4ZM554.64-24.6L553.94-21.05Q551.84-21.7 550.22-21.93 548.59-22.15 547.24-22.15L547.24-22.15Q545.49-22.15 544.32-21.3 543.14-20.45 543.14-19.1L543.14-19.1Q543.19-17.9 544.19-17.05 545.19-16.2 546.51-15.53 547.84-14.85 549.47-14.05 551.09-13.25 552.51-12.25 553.94-11.25 554.84-9.85 555.74-8.45 555.79-6.5L555.79-6.5Q555.74-4.4 554.87-3.03 553.99-1.65 552.62-0.83 551.24 0 549.64 0.33 548.04 0.65 546.64 0.65L546.64 0.65Q544.84 0.65 542.91 0.45 540.99 0.25 538.79-0.4L538.79-0.4 539.54-4Q541.79-3.4 543.64-3.13 545.49-2.85 546.69-2.85L546.69-2.85Q547.59-2.85 548.47-3.05 549.34-3.25 550.04-3.63 550.74-4 551.16-4.6 551.59-5.2 551.59-5.95L551.59-5.95Q551.54-7.35 550.64-8.33 549.74-9.3 548.32-10.08 546.89-10.85 545.26-11.63 543.64-12.4 542.22-13.43 540.79-14.45 539.84-15.88 538.89-17.3 538.89-19.4L538.89-19.4Q538.89-20.9 539.66-22.08 540.44-23.25 541.66-24.03 542.89-24.8 544.37-25.23 545.84-25.65 547.24-25.65L547.24-25.65Q548.69-25.65 550.49-25.43 552.29-25.2 554.64-24.6L554.64-24.6ZM561.19 0L561.19-25.2 565.19-25.65 565.19 0 561.19 0ZM560.54-32.35L560.54-32.35Q560.54-33.5 561.31-34.27 562.09-35.05 563.24-35.05L563.24-35.05Q564.44-35.05 565.26-34.27 566.09-33.5 566.09-32.35L566.09-32.35Q566.09-31.2 565.26-30.43 564.44-29.65 563.24-29.65L563.24-29.65Q562.09-29.65 561.31-30.43 560.54-31.2 560.54-32.35ZM572.43 0L572.43-20.15Q572.49-21.2 572.18-24.7L572.18-24.7 575.88-25.2 576.43-22Q577.93-23 579.41-23.75 580.88-24.5 582.43-25.08 583.99-25.65 585.43-25.65L585.43-25.65Q587.49-25.65 588.86-25.18 590.24-24.7 591.08-23.6 591.93-22.5 592.31-20.7 592.68-18.9 592.68-16.2L592.68-16.2 592.68 0 588.68 0 588.68-15.75Q588.68-17.25 588.63-18.43 588.58-19.6 588.21-20.43 587.83-21.25 587.06-21.7 586.28-22.15 584.88-22.15L584.88-22.15Q583.58-22.15 582.13-21.58 580.68-21 579.28-20.25 577.88-19.5 576.43-18.5L576.43-18.5 576.43 0 572.43 0ZM617.58-3.95L618.33-0.6Q617.18-0.25 615.96 0 614.73 0.25 613.26 0.45 611.78 0.65 610.18 0.65L610.18 0.65Q607.68 0.65 605.53-0.05 603.38-0.75 601.78-2.3 600.18-3.85 599.26-6.33 598.33-8.8 598.33-12.4L598.33-12.4Q598.33-15.65 599.23-18.13 600.13-20.6 601.71-22.28 603.28-23.95 605.41-24.8 607.53-25.65 610.03-25.65L610.03-25.65Q612.48-25.65 614.28-24.7 616.08-23.75 617.26-22.13 618.43-20.5 619.01-18.32 619.58-16.15 619.58-13.75L619.58-13.75 618.83-11.55 602.68-11.55Q602.68-10 603.08-8.45 603.48-6.9 604.46-5.65 605.43-4.4 607.01-3.63 608.58-2.85 610.93-2.85L610.93-2.85Q612.43-2.85 613.68-3.03 614.93-3.2 615.86-3.43 616.78-3.65 617.58-3.95L617.58-3.95ZM602.83-14.75L615.43-14.75Q615.43-15.1 615.28-16.3 615.13-17.5 614.58-18.8 614.03-20.1 612.88-21.13 611.73-22.15 609.83-22.15L609.83-22.15Q607.73-22.15 606.38-21.28 605.03-20.4 604.23-19.2 603.43-18 603.13-16.75 602.83-15.5 602.83-14.75L602.83-14.75ZM639.33-24.6L638.63-21.05Q636.53-21.7 634.9-21.93 633.28-22.15 631.93-22.15L631.93-22.15Q630.18-22.15 629-21.3 627.83-20.45 627.83-19.1L627.83-19.1Q627.88-17.9 628.88-17.05 629.88-16.2 631.2-15.53 632.53-14.85 634.15-14.05 635.78-13.25 637.2-12.25 638.63-11.25 639.53-9.85 640.43-8.45 640.48-6.5L640.48-6.5Q640.43-4.4 639.55-3.03 638.68-1.65 637.3-0.83 635.93 0 634.33 0.33 632.73 0.65 631.33 0.65L631.33 0.65Q629.53 0.65 627.6 0.45 625.68 0.25 623.48-0.4L623.48-0.4 624.23-4Q626.48-3.4 628.33-3.13 630.18-2.85 631.38-2.85L631.38-2.85Q632.28-2.85 633.15-3.05 634.03-3.25 634.73-3.63 635.43-4 635.85-4.6 636.28-5.2 636.28-5.95L636.28-5.95Q636.23-7.35 635.33-8.33 634.43-9.3 633-10.08 631.58-10.85 629.95-11.63 628.33-12.4 626.9-13.43 625.48-14.45 624.53-15.88 623.58-17.3 623.58-19.4L623.58-19.4Q623.58-20.9 624.35-22.08 625.13-23.25 626.35-24.03 627.58-24.8 629.05-25.23 630.53-25.65 631.93-25.65L631.93-25.65Q633.38-25.65 635.18-25.43 636.98-25.2 639.33-24.6L639.33-24.6ZM660.18-24.6L659.48-21.05Q657.38-21.7 655.75-21.93 654.13-22.15 652.78-22.15L652.78-22.15Q651.03-22.15 649.85-21.3 648.68-20.45 648.68-19.1L648.68-19.1Q648.73-17.9 649.73-17.05 650.73-16.2 652.05-15.53 653.38-14.85 655-14.05 656.63-13.25 658.05-12.25 659.48-11.25 660.38-9.85 661.28-8.45 661.33-6.5L661.33-6.5Q661.28-4.4 660.4-3.03 659.53-1.65 658.15-0.83 656.78 0 655.18 0.33 653.58 0.65 652.18 0.65L652.18 0.65Q650.38 0.65 648.45 0.45 646.53 0.25 644.33-0.4L644.33-0.4 645.08-4Q647.33-3.4 649.18-3.13 651.03-2.85 652.23-2.85L652.23-2.85Q653.13-2.85 654-3.05 654.88-3.25 655.58-3.63 656.28-4 656.7-4.6 657.13-5.2 657.13-5.95L657.13-5.95Q657.08-7.35 656.18-8.33 655.28-9.3 653.85-10.08 652.43-10.85 650.8-11.63 649.18-12.4 647.75-13.43 646.33-14.45 645.38-15.88 644.43-17.3 644.43-19.4L644.43-19.4Q644.43-20.9 645.2-22.08 645.98-23.25 647.2-24.03 648.43-24.8 649.9-25.23 651.38-25.65 652.78-25.65L652.78-25.65Q654.23-25.65 656.03-25.43 657.83-25.2 660.18-24.6L660.18-24.6ZM664.97 5.8L666.67-6.5 670.92-6.5 668.12 6.4 664.97 5.8ZM689.52 0L689.52-34.1 710.42-34.1 710.42-30.25 693.72-30.25 693.72-19.35 709.22-19.35 709.22-15.6 693.72-15.6 693.72 0 689.52 0ZM715.77 0L715.77-25.2 719.77-25.65 719.77 0 715.77 0ZM715.12-32.35L715.12-32.35Q715.12-33.5 715.89-34.27 716.67-35.05 717.82-35.05L717.82-35.05Q719.02-35.05 719.84-34.27 720.67-33.5 720.67-32.35L720.67-32.35Q720.67-31.2 719.84-30.43 719.02-29.65 717.82-29.65L717.82-29.65Q716.67-29.65 715.89-30.43 715.12-31.2 715.12-32.35ZM727.01 0L727.01-20.15Q727.06-21.2 726.76-24.7L726.76-24.7 730.46-25.2 731.01-22Q732.51-23 733.99-23.75 735.46-24.5 737.01-25.08 738.56-25.65 740.01-25.65L740.01-25.65Q742.06-25.65 743.44-25.18 744.81-24.7 745.66-23.6 746.51-22.5 746.89-20.7 747.26-18.9 747.26-16.2L747.26-16.2 747.26 0 743.26 0 743.26-15.75Q743.26-17.25 743.21-18.43 743.16-19.6 742.79-20.43 742.41-21.25 741.64-21.7 740.86-22.15 739.46-22.15L739.46-22.15Q738.16-22.15 736.71-21.58 735.26-21 733.86-20.25 732.46-19.5 731.01-18.5L731.01-18.5 731.01 0 727.01 0ZM768.31-5.85L768.31-11.55Q767.31-11.5 766.41-11.45 765.51-11.4 764.64-11.33 763.76-11.25 763.06-11.15L763.06-11.15Q759.46-10.7 757.96-9.58 756.46-8.45 756.46-6.35L756.46-6.35Q756.46-4.6 757.54-3.73 758.61-2.85 760.36-2.85L760.36-2.85Q762.76-2.85 764.64-3.68 766.51-4.5 768.31-5.85L768.31-5.85ZM768.76 0.4L768.26-2.35Q765.91-1 763.89-0.18 761.86 0.65 759.51 0.65L759.51 0.65Q756.16 0.65 754.19-0.98 752.21-2.6 752.21-6.35L752.21-6.35Q752.21-8.3 753.21-9.75 754.21-11.2 755.84-12.18 757.46-13.15 759.51-13.7 761.56-14.25 763.71-14.4L763.71-14.4Q764.61-14.5 766.06-14.58 767.51-14.65 768.31-14.7L768.31-14.7Q768.31-16.45 768.21-17.82 768.11-19.2 767.61-20.18 767.11-21.15 766.14-21.65 765.16-22.15 763.36-22.15L763.36-22.15Q761.91-22.15 760.56-21.98 759.21-21.8 758.16-21.6L758.16-21.6Q756.91-21.35 755.86-21.05L755.86-21.05 755.06-24.5Q756.31-24.8 757.76-25.05L757.76-25.05Q759.01-25.3 760.66-25.48 762.31-25.65 764.21-25.65L764.21-25.65Q766.76-25.65 768.34-24.9 769.91-24.15 770.79-22.88 771.66-21.6 771.99-19.98 772.31-18.35 772.31-16.55L772.31-16.55 772.31-4.55Q772.31-3.85 772.34-3.08 772.36-2.3 772.44-1.55 772.51-0.8 772.61 0L772.61 0 768.76 0.4ZM779.41 0L779.41-20.15Q779.46-21.2 779.16-24.7L779.16-24.7 782.86-25.2 783.41-22Q784.91-23 786.38-23.75 787.86-24.5 789.41-25.08 790.96-25.65 792.41-25.65L792.41-25.65Q794.46-25.65 795.83-25.18 797.21-24.7 798.06-23.6 798.91-22.5 799.28-20.7 799.66-18.9 799.66-16.2L799.66-16.2 799.66 0 795.66 0 795.66-15.75Q795.66-17.25 795.61-18.43 795.56-19.6 795.18-20.43 794.81-21.25 794.03-21.7 793.26-22.15 791.86-22.15L791.86-22.15Q790.56-22.15 789.11-21.58 787.66-21 786.26-20.25 784.86-19.5 783.41-18.5L783.41-18.5 783.41 0 779.41 0ZM823.11-24.85L822.31-21.5Q821.46-21.7 819.96-21.93 818.46-22.15 816.91-22.15L816.91-22.15Q814.66-22.15 813.23-21.25 811.81-20.35 811.01-18.93 810.21-17.5 809.91-15.78 809.61-14.05 809.61-12.4L809.61-12.4Q809.61-9.85 810.26-8.03 810.91-6.2 811.98-5.05 813.06-3.9 814.46-3.38 815.86-2.85 817.41-2.85L817.41-2.85Q818.46-2.85 819.43-2.98 820.41-3.1 821.23-3.28 822.06-3.45 822.81-3.7L822.81-3.7 823.61-0.35Q822.56-0.05 821.66 0.15 820.76 0.35 819.53 0.5 818.31 0.65 816.91 0.65L816.91 0.65Q814.16 0.65 812.01-0.05 809.86-0.75 808.38-2.3 806.91-3.85 806.13-6.35 805.36-8.85 805.36-12.45L805.36-12.45Q805.36-15.95 806.33-18.48 807.31-21 808.91-22.58 810.51-24.15 812.58-24.9 814.66-25.65 816.91-25.65L816.91-25.65Q818.11-25.65 819.23-25.53 820.36-25.4 821.21-25.25L821.21-25.25Q822.21-25.05 823.11-24.85L823.11-24.85ZM845.8-3.95L846.55-0.6Q845.4-0.25 844.18 0 842.95 0.25 841.48 0.45 840 0.65 838.4 0.65L838.4 0.65Q835.9 0.65 833.75-0.05 831.6-0.75 830-2.3 828.4-3.85 827.48-6.33 826.55-8.8 826.55-12.4L826.55-12.4Q826.55-15.65 827.45-18.13 828.35-20.6 829.93-22.28 831.5-23.95 833.63-24.8 835.75-25.65 838.25-25.65L838.25-25.65Q840.7-25.65 842.5-24.7 844.3-23.75 845.48-22.13 846.65-20.5 847.23-18.32 847.8-16.15 847.8-13.75L847.8-13.75 847.05-11.55 830.9-11.55Q830.9-10 831.3-8.45 831.7-6.9 832.68-5.65 833.65-4.4 835.23-3.63 836.8-2.85 839.15-2.85L839.15-2.85Q840.65-2.85 841.9-3.03 843.15-3.2 844.08-3.43 845-3.65 845.8-3.95L845.8-3.95ZM831.05-14.75L843.65-14.75Q843.65-15.1 843.5-16.3 843.35-17.5 842.8-18.8 842.25-20.1 841.1-21.13 839.95-22.15 838.05-22.15L838.05-22.15Q835.95-22.15 834.6-21.28 833.25-20.4 832.45-19.2 831.65-18 831.35-16.75 831.05-15.5 831.05-14.75L831.05-14.75ZM851.5 5.8L853.2-6.5 857.45-6.5 854.65 6.4 851.5 5.8ZM889.25-5.85L889.25-11.55Q888.25-11.5 887.35-11.45 886.45-11.4 885.57-11.33 884.7-11.25 884-11.15L884-11.15Q880.4-10.7 878.9-9.58 877.4-8.45 877.4-6.35L877.4-6.35Q877.4-4.6 878.47-3.73 879.55-2.85 881.3-2.85L881.3-2.85Q883.7-2.85 885.57-3.68 887.45-4.5 889.25-5.85L889.25-5.85ZM889.7 0.4L889.2-2.35Q886.85-1 884.82-0.18 882.8 0.65 880.45 0.65L880.45 0.65Q877.1 0.65 875.12-0.98 873.15-2.6 873.15-6.35L873.15-6.35Q873.15-8.3 874.15-9.75 875.15-11.2 876.77-12.18 878.4-13.15 880.45-13.7 882.5-14.25 884.65-14.4L884.65-14.4Q885.55-14.5 887-14.58 888.45-14.65 889.25-14.7L889.25-14.7Q889.25-16.45 889.15-17.82 889.05-19.2 888.55-20.18 888.05-21.15 887.07-21.65 886.1-22.15 884.3-22.15L884.3-22.15Q882.85-22.15 881.5-21.98 880.15-21.8 879.1-21.6L879.1-21.6Q877.85-21.35 876.8-21.05L876.8-21.05 876-24.5Q877.25-24.8 878.7-25.05L878.7-25.05Q879.95-25.3 881.6-25.48 883.25-25.65 885.15-25.65L885.15-25.65Q887.7-25.65 889.27-24.9 890.85-24.15 891.72-22.88 892.6-21.6 892.92-19.98 893.25-18.35 893.25-16.55L893.25-16.55 893.25-4.55Q893.25-3.85 893.27-3.08 893.3-2.3 893.37-1.55 893.45-0.8 893.55 0L893.55 0 889.7 0.4ZM900.34 0L900.34-20.15Q900.39-21.2 900.09-24.7L900.09-24.7 903.79-25.2 904.34-22Q905.84-23 907.32-23.75 908.79-24.5 910.34-25.08 911.89-25.65 913.34-25.65L913.34-25.65Q915.39-25.65 916.77-25.18 918.14-24.7 918.99-23.6 919.84-22.5 920.22-20.7 920.59-18.9 920.59-16.2L920.59-16.2 920.59 0 916.59 0 916.59-15.75Q916.59-17.25 916.54-18.43 916.49-19.6 916.12-20.43 915.74-21.25 914.97-21.7 914.19-22.15 912.79-22.15L912.79-22.15Q911.49-22.15 910.04-21.58 908.59-21 907.19-20.25 905.79-19.5 904.34-18.5L904.34-18.5 904.34 0 900.34 0ZM943.34-5.5L943.34-21.4Q941.54-21.9 940.54-22.03 939.54-22.15 938.49-22.15L938.49-22.15Q936.39-22.15 934.89-21.4 933.39-20.65 932.42-19.33 931.44-18 930.99-16.28 930.54-14.55 930.54-12.6L930.54-12.6Q930.54-10.85 930.92-9.1 931.29-7.35 932.09-5.95 932.89-4.55 934.04-3.7 935.19-2.85 936.79-2.85L936.79-2.85Q937.89-2.85 939.07-3.25 940.24-3.65 941.24-4.17 942.24-4.7 943.34-5.5L943.34-5.5ZM943.79 0.4L943.39-2Q942.24-1.2 941.17-0.68 940.09-0.15 938.82 0.25 937.54 0.65 936.34 0.65L936.34 0.65Q931.64 0.65 928.97-2.68 926.29-6 926.29-12.4L926.29-12.4Q926.29-16.2 927.52-18.75 928.74-21.3 930.59-22.83 932.44-24.35 934.57-25 936.69-25.65 938.49-25.65L938.49-25.65Q939.39-25.65 940.39-25.53 941.39-25.4 943.34-24.9L943.34-24.9 943.34-37.45 947.34-37.9 947.34-4.55Q947.34-3.85 947.37-3.08 947.39-2.3 947.47-1.55 947.54-0.8 947.64 0L947.64 0 943.79 0.4ZM996.43-33.45L995.73-29.4Q994.53-29.7 993.23-29.95L993.23-29.95Q992.08-30.2 990.61-30.38 989.13-30.55 987.53-30.55L987.53-30.55Q983.83-30.55 982.23-29.43 980.63-28.3 980.63-25.95L980.63-25.95Q980.68-24.1 981.98-22.83 983.28-21.55 985.23-20.48 987.18-19.4 989.51-18.38 991.83-17.35 993.78-16.03 995.73-14.7 997.06-12.93 998.38-11.15 998.38-8.6L998.38-8.6Q998.38-5.65 997.11-3.85 995.83-2.05 993.88-1.05 991.93-0.05 989.61 0.3 987.28 0.65 985.18 0.65L985.18 0.65Q983.18 0.65 981.53 0.4 979.88 0.15 978.68-0.15L978.68-0.15Q977.28-0.5 976.13-0.95L976.13-0.95 977.13-5Q978.28-4.5 979.58-4.15L979.58-4.15Q980.73-3.85 982.16-3.6 983.58-3.35 985.18-3.35L985.18-3.35Q987.13-3.35 988.76-3.6 990.38-3.85 991.58-4.4 992.78-4.95 993.46-5.85 994.13-6.75 994.13-8.05L994.13-8.05Q994.08-10 992.86-11.23 991.63-12.45 989.61-13.58 987.58-14.7 985.26-15.75 982.93-16.8 980.98-18.15 979.03-19.5 977.71-21.35 976.38-23.2 976.38-25.95L976.38-25.95Q976.38-27.55 976.93-29.1 977.48-30.65 978.81-31.85 980.13-33.05 982.26-33.8 984.38-34.55 987.53-34.55L987.53-34.55Q989.33-34.55 990.96-34.38 992.58-34.2 993.78-34L993.78-34Q995.18-33.75 996.43-33.45L996.43-33.45ZM1011.73 0L1011.73-30.2 1001.03-30.2 1001.03-34.1 1026.63-34.1 1026.63-30.2 1015.93-30.2 1015.93 0 1011.73 0ZM1031.88 0L1031.88-34.1 1052.78-34.1 1052.78-30.25 1036.08-30.25 1036.08-19.35 1051.58-19.35 1051.58-15.6 1036.08-15.6 1036.08-3.85 1053.28-3.85 1053.28 0 1031.88 0ZM1059.23 0L1061.03-34.1 1066.38-34.1 1074.08-13.8Q1074.73-12.05 1075.28-10.58 1075.83-9.1 1076.23-7.95L1076.23-7.95Q1076.73-6.65 1077.08-5.55L1077.08-5.55 1077.18-5.55Q1077.48-6.65 1077.93-7.95L1077.93-7.95Q1078.33-9.1 1078.83-10.58 1079.33-12.05 1080.03-13.8L1080.03-13.8 1087.88-34.1 1093.23-34.1 1094.98 0 1090.73 0 1089.88-18.75Q1089.78-21.2 1089.73-22.9 1089.68-24.6 1089.68-25.7L1089.68-25.7 1089.68-27.8 1089.58-27.8Q1089.28-27.05 1088.83-25.75L1088.83-25.75Q1088.43-24.65 1087.8-22.93 1087.18-21.2 1086.28-18.75L1086.28-18.75 1079.23 0 1074.98 0 1067.88-18.75Q1066.93-21.15 1066.33-22.88 1065.73-24.6 1065.33-25.7L1065.33-25.7Q1064.88-27 1064.63-27.8L1064.63-27.8 1064.53-27.8Q1064.58-27 1064.63-25.7L1064.63-25.7Q1064.68-23.6 1064.48-18.75L1064.48-18.75 1063.48 0 1059.23 0Z" opacity="1" transform="matrix(1,0,0,1,0,0)" fill="#000000" class="slogan-text-1" data-fill-palette-color="secondary" id="text-1"></path></svg></g></svg></g></svg></g></svg></g></svg></g><defs></defs></svg><rect width="395.52" height="122.08941126905681" fill="none" stroke="none" visibility="hidden"></rect></g></svg></g></svg>